inDegrees=no
DataType=double
version=3
OpenSimVersion=4.4-2022-10-11-798caa840
endheader
time	elv_angle	shoulder_elv	shoulder_rot	elbow_flexion	pro_sup	deviation	flexion
0.0000000000	0.5800642967	0.7278773189	0.3273796737	1.7590517998	0.0000000000	0.0000000000	0.0000000000
0.0041702867	0.5752933621	0.7293707132	0.3241546452	1.7721587420	0.0000000000	0.0000000000	0.0000000000
0.0083405734	0.5745465755	0.7293345928	0.3239102066	1.7731150389	0.0000000000	0.0000000000	0.0000000000
0.0125108601	0.5744658113	0.7293277383	0.3238866925	1.7731988430	0.0000000000	0.0000000000	0.0000000000
0.0166811468	0.5744574666	0.7293286324	0.3238827586	1.7732067108	0.0000000000	0.0000000000	0.0000000000
0.0208514335	0.5744569302	0.7293275595	0.3238835931	1.7732061148	0.0000000000	0.0000000000	0.0000000000
0.0250217202	0.5744569302	0.7293275595	0.3238835931	1.7732061148	0.0000000000	0.0000000000	0.0000000000
0.0291920070	0.5744569302	0.7293275595	0.3238835931	1.7732061148	0.0000000000	0.0000000000	0.0000000000
0.0333622937	0.5744569302	0.7293275595	0.3238835931	1.7732061148	0.0000000000	0.0000000000	0.0000000000
0.0375325804	0.5744569302	0.7293275595	0.3238835931	1.7732061148	0.0000000000	0.0000000000	0.0000000000
0.0417028671	0.5744569302	0.7293275595	0.3238835931	1.7732061148	0.0000000000	0.0000000000	0.0000000000
0.0458731538	0.5744569302	0.7293275595	0.3238835931	1.7732061148	0.0000000000	0.0000000000	0.0000000000
0.0500434405	0.5744569302	0.7293275595	0.3238835931	1.7732061148	0.0000000000	0.0000000000	0.0000000000
0.0542137272	0.5744569302	0.7293275595	0.3238835931	1.7732061148	0.0000000000	0.0000000000	0.0000000000
0.0583840139	0.5744569302	0.7293275595	0.3238835931	1.7732061148	0.0000000000	0.0000000000	0.0000000000
0.0625543006	0.5744569302	0.7293275595	0.3238835931	1.7732061148	0.0000000000	0.0000000000	0.0000000000
0.0667245873	0.5744569302	0.7293275595	0.3238835931	1.7732061148	0.0000000000	0.0000000000	0.0000000000
0.0708948740	0.5744569302	0.7293275595	0.3238835931	1.7732061148	0.0000000000	0.0000000000	0.0000000000
0.0750651607	0.5744569302	0.7293275595	0.3238835931	1.7732061148	0.0000000000	0.0000000000	0.0000000000
0.0792354474	0.5744569302	0.7293275595	0.3238835931	1.7732061148	0.0000000000	0.0000000000	0.0000000000
0.0834057341	0.5744569302	0.7293275595	0.3238835931	1.7732061148	0.0000000000	0.0000000000	0.0000000000
0.0875760209	0.5744569302	0.7293275595	0.3238835931	1.7732061148	0.0000000000	0.0000000000	0.0000000000
0.0917463076	0.5744569302	0.7293275595	0.3238835931	1.7732061148	0.0000000000	0.0000000000	0.0000000000
0.0959165943	0.5744569302	0.7293275595	0.3238835931	1.7732061148	0.0000000000	0.0000000000	0.0000000000
0.1000868810	0.5744569302	0.7293275595	0.3238835931	1.7732061148	0.0000000000	0.0000000000	0.0000000000
0.1042571677	0.5744569302	0.7293275595	0.3238835931	1.7732061148	0.0000000000	0.0000000000	0.0000000000
0.1084274544	0.5744569302	0.7293275595	0.3238835931	1.7732061148	0.0000000000	0.0000000000	0.0000000000
0.1125977411	0.5744569302	0.7293275595	0.3238835931	1.7732061148	0.0000000000	0.0000000000	0.0000000000
0.1167680278	0.5744569302	0.7293275595	0.3238835931	1.7732061148	0.0000000000	0.0000000000	0.0000000000
0.1209383145	0.5744569302	0.7293275595	0.3238835931	1.7732061148	0.0000000000	0.0000000000	0.0000000000
0.1251086012	0.5744569302	0.7293275595	0.3238835931	1.7732061148	0.0000000000	0.0000000000	0.0000000000
0.1292788879	0.5744569302	0.7293275595	0.3238835931	1.7732061148	0.0000000000	0.0000000000	0.0000000000
0.1334491746	0.5744569302	0.7293275595	0.3238835931	1.7732061148	0.0000000000	0.0000000000	0.0000000000
0.1376194613	0.5744569302	0.7293275595	0.3238835931	1.7732061148	0.0000000000	0.0000000000	0.0000000000
0.1417897480	0.5744569302	0.7293275595	0.3238835931	1.7732061148	0.0000000000	0.0000000000	0.0000000000
0.1459600348	0.5744569302	0.7293275595	0.3238835931	1.7732061148	0.0000000000	0.0000000000	0.0000000000
0.1501303215	0.5744569302	0.7293275595	0.3238835931	1.7732061148	0.0000000000	0.0000000000	0.0000000000
0.1543006082	0.5744569302	0.7293275595	0.3238835931	1.7732061148	0.0000000000	0.0000000000	0.0000000000
0.1584708949	0.5744569302	0.7293275595	0.3238835931	1.7732061148	0.0000000000	0.0000000000	0.0000000000
0.1626411816	0.5744569302	0.7293275595	0.3238835931	1.7732061148	0.0000000000	0.0000000000	0.0000000000
0.1668114683	0.5744569302	0.7293275595	0.3238835931	1.7732061148	0.0000000000	0.0000000000	0.0000000000
0.1709817550	0.5744569302	0.7293275595	0.3238835931	1.7732061148	0.0000000000	0.0000000000	0.0000000000
0.1751520417	0.5744569302	0.7293275595	0.3238835931	1.7732061148	0.0000000000	0.0000000000	0.0000000000
0.1793223284	0.5744569302	0.7293275595	0.3238835931	1.7732061148	0.0000000000	0.0000000000	0.0000000000
0.1834926151	0.5744569302	0.7293275595	0.3238835931	1.7732061148	0.0000000000	0.0000000000	0.0000000000
0.1876629018	0.5744569302	0.7293275595	0.3238835931	1.7732061148	0.0000000000	0.0000000000	0.0000000000
0.1918331885	0.5744569302	0.7293275595	0.3238835931	1.7732061148	0.0000000000	0.0000000000	0.0000000000
0.1960034752	0.5744569302	0.7293275595	0.3238835931	1.7732061148	0.0000000000	0.0000000000	0.0000000000
